<?xml version="1.0" encoding="utf-8"?>
<!-- Generator: Adobe Illustrator 27.6.1, SVG Export Plug-In . SVG Version: 6.00 Build 0)  -->
<svg version="1.1" id="Layer_1" xmlns="http://www.w3.org/2000/svg" xmlns:xlink="http://www.w3.org/1999/xlink" x="0px" y="0px"
	 viewBox="0 0 1200 1200" style="enable-background:new 0 0 1200 1200;" xml:space="preserve">
<style type="text/css">
	.st0{fill-rule:evenodd;clip-rule:evenodd;fill:#225936;}
</style>
<path class="st0" d="M313,533.3h-6.5c-59,0-106.6,47.8-106.6,106.7v453.2c0,59.1,47.7,106.7,106.6,106.7h586.7
	c59,0,106.7-47.8,106.7-106.7V640.1c0-59.1-47.8-106.7-106.7-106.7H419.7V286.9c0-99.5,80.6-180.2,180.1-180.2
	c99.5,0,180.1,80.7,180.1,180.2v77.6c0,29.5,23.9,53.3,53.3,53.3c29.5,0,53.3-23.9,53.3-53.3v-77.6C886.7,128.5,758.2,0,599.9,0
	C441.4,0,313,128.4,313,286.9L313,533.3z M548.3,878.5c-6.1,70.2-22.2,138.2-47.3,204.3c-6.1,16.2,2,34.2,18.2,40.4
	c16.1,6.1,34.2-2,40.4-18.2c17.8-46.8,31.3-94.5,40.4-143.2c9.1,48.6,22.7,96.4,40.4,143.2c6.1,16.2,24.2,24.3,40.4,18.2
	c16.2-6.1,24.3-24.2,18.2-40.4c-25.1-66.1-41.2-134.1-47.3-204.2c37.5-1.8,75-5.8,112.5-11.9c17-2.8,28.6-18.9,25.9-35.9
	c-2.8-17-18.9-28.6-35.9-25.9c-102.8,16.7-205.7,16.1-308.5,0c-17.1-2.7-33.1,9-35.7,26.1c-2.7,17.1,9,33.1,26.1,35.7
	C473.4,872.6,510.9,876.5,548.3,878.5L548.3,878.5z M600,678.2c31.2,0,56.5,25.3,56.5,56.5c0,31.2-25.3,56.5-56.5,56.5
	c-31.2,0-56.5-25.3-56.5-56.5C543.5,703.5,568.8,678.2,600,678.2z"/>
</svg>
