<?xml version="1.0" encoding="UTF-8"?>
<svg width="1200pt" height="1200pt" version="1.1" viewBox="0 0 1200 1200" xmlns="http://www.w3.org/2000/svg">
 <path d="m1097.8 769.25-31.715 74.105c-4.8594 11.207-13.953 20.039-25.293 24.578-11.344 4.5391-24.02 4.4141-35.27-0.34766l-36.734-15.723v0.003907c-3.6055-1.5273-7.6172-1.7969-11.395-0.76953-3.7734 1.0312-7.0938 3.3047-9.4219 6.4492-27.508 37.23-60.848 69.77-98.73 96.367-4.6211 3.2734-7.3594 8.5898-7.3477 14.254-0.011718 2.2148 0.40234 4.4102 1.2227 6.4648l14.879 37.113c4.4883 11.363 4.3047 24.039-0.51172 35.266-4.8164 11.23-13.875 20.098-25.203 24.676l-74.816 29.988v-0.003906c-11.367 4.5391-24.07 4.3828-35.32-0.44141-11.25-4.8203-20.125-13.91-24.68-25.27l-14.828-37.066c-1.2852-3.2305-3.5078-6-6.3828-7.9492-2.875-1.9531-6.2695-2.9961-9.7422-3-0.87891 0.003907-1.7539 0.070313-2.6211 0.19922-45.777 6.9102-92.371 6.375-137.98-1.5938-0.98438-0.15234-1.9766-0.23047-2.9727-0.23047-3.4102 0-6.7422 1-9.5859 2.875-2.8438 1.8789-5.0781 4.5469-6.4219 7.6797l-15.699 36.734h0.003906c-4.8594 11.207-13.945 20.043-25.285 24.586-11.34 4.5391-24.016 4.418-35.266-0.34375l-74.117-31.715-0.003907 0.003906c-11.211-4.8516-20.051-13.941-24.59-25.285-4.5391-11.344-4.4102-24.02 0.35937-35.27l15.699-36.734c1.5312-3.5977 1.8086-7.6133 0.78125-11.387-1.0273-3.7773-3.2969-7.0977-6.4414-9.4297-37.238-27.512-69.789-60.859-96.391-98.754-2.2656-3.1914-5.5391-5.5312-9.293-6.6406-3.7578-1.1133-7.7734-0.92969-11.414 0.51953l-37.039 14.926c-11.371 4.4961-24.059 4.3125-35.297-0.50391-11.238-4.8164-20.117-13.875-24.703-25.211l-29.914-74.828c-4.5547-11.359-4.4062-24.059 0.40234-35.312 4.8125-11.25 13.895-20.133 25.25-24.688l37.125-14.867c3.2305-1.293 6-3.5234 7.9492-6.4023 1.9531-2.8828 2.9961-6.2812 3-9.7578-0.003906-0.87109-0.070312-1.7383-0.19531-2.5977-3.1797-21.156-4.7812-42.523-4.7891-63.918 0.027344-24.793 2.1719-49.543 6.4023-73.973 0.67188-3.8633 0.019531-7.8359-1.8477-11.285-1.8711-3.4453-4.8477-6.1602-8.4492-7.707l-36.734-15.699v0.003906c-11.215-4.8555-20.055-13.945-24.598-25.289s-4.4219-24.023 0.33984-35.273l31.715-74.094v-0.003906c4.8516-11.211 13.938-20.051 25.281-24.598 11.34-4.543 24.02-4.418 35.27 0.34375l36.734 15.711v-0.003907c2.1719 0.92188 4.5 1.3945 6.8594 1.3984 5.5234 0.003906 10.723-2.6211 14.008-7.0664 27.52-37.219 60.867-69.75 98.754-96.344 3.1953-2.2617 5.5352-5.5352 6.6445-9.293 1.1094-3.7539 0.92578-7.7734-0.52344-11.41l-14.879-37.125 0.003906-0.003907c-4.5078-11.367-4.332-24.059 0.48828-35.301 4.8164-11.242 13.883-20.121 25.227-24.699l74.816-29.977c11.363-4.5352 24.07-4.3789 35.32 0.44531 11.25 4.8203 20.125 13.91 24.68 25.27l14.879 37.113-0.003906 0.003906c1.2891 3.2266 3.5195 5.9961 6.3984 7.9453 2.8789 1.9492 6.2773 2.9883 9.7539 2.9883 0.86719 0 1.7344-0.0625 2.5938-0.19531 45.746-6.875 92.297-6.3242 137.87 1.6289 0.97656 0.18359 1.9688 0.27734 2.9609 0.28125 3.4102-0.003907 6.7422-1.0078 9.5898-2.8828 2.8438-1.875 5.082-4.543 6.4297-7.6719l15.711-36.734h-0.003907c4.832-11.234 13.922-20.098 25.273-24.645 11.352-4.543 24.043-4.4062 35.293 0.38672l74.082 31.715c11.219 4.8438 20.066 13.934 24.609 25.281 4.5469 11.344 4.418 24.027-0.35547 35.281l-15.723 36.734c-1.5234 3.6016-1.793 7.6133-0.76562 11.391 1.0273 3.7734 3.293 7.0938 6.4375 9.4258 37.195 27.523 69.699 60.875 96.258 98.766 2.2539 3.207 5.5273 5.5586 9.2852 6.668 3.7578 1.1133 7.7852 0.92188 11.418-0.54297l37.102-14.949 0.003906-0.003906c11.352-4.5039 24.027-4.332 35.254 0.47266 11.23 4.8086 20.102 13.859 24.684 25.18l29.977 74.828c4.5625 11.359 4.4219 24.066-0.39062 35.32s-13.902 20.133-25.266 24.68l-37.113 14.867c-3.2266 1.293-5.9961 3.5234-7.9453 6.4062-1.9492 2.8789-2.9883 6.2773-2.9883 9.7578 0 0.86328 0.058593 1.7266 0.18359 2.582 6.8984 45.766 6.3555 92.348-1.6055 137.94-0.17969 0.99609-0.26953 2.0039-0.26953 3.0156 0 3.4062 1 6.7383 2.875 9.582s4.5469 5.0703 7.6797 6.4102l36.734 15.723v-0.003907c11.242 4.8203 20.109 13.902 24.664 25.25 4.5586 11.348 4.4297 24.039-0.35547 35.289zm-379.59-445.71c-63.961-27.383-135.44-31.742-202.26-12.328-66.816 19.41-124.84 61.387-164.17 118.78-39.336 57.391-57.555 126.65-51.555 195.96 6.0039 69.32 35.855 134.41 84.469 184.19 48.617 49.777 112.99 81.16 182.14 88.797 69.16 7.6367 138.83-8.9414 197.13-46.91s101.64-94.98 122.62-161.32c20.984-66.34 18.316-137.9-7.5469-202.5-14.676-36.656-36.426-70.066-64.012-98.316-27.586-28.254-60.469-50.797-96.766-66.34zm126.12 381.1h0.003906c20.691-48.34 26.582-101.73 16.93-153.42s-34.414-99.352-71.156-136.96c-36.742-37.613-83.816-63.488-135.26-74.348-51.449-10.863-104.96-6.2227-153.77 13.332-48.809 19.551-90.727 53.141-120.45 96.52-29.723 43.375-45.914 94.59-46.523 147.17-0.61328 52.578 14.379 104.16 43.082 148.21 28.703 44.055 69.824 78.613 118.17 99.297 7.7773 3.332 15.672 6.207 23.57 8.7539l-0.25781-134.12c-32.695-16.594-58.316-44.418-72.16-78.375-13.848-33.953-14.988-71.758-3.2148-106.48 11.773-34.727 35.668-64.047 67.309-82.582 5.1406-3.1367 11.234-4.3398 17.18-3.3945 5.9492 0.94531 11.367 3.9805 15.281 8.5586 3.918 4.5781 6.0742 10.398 6.0859 16.422l0.18359 91.434 49.223 28.324 49.078-28.484-0.14844-91.52v-0.0625 0.003906c0-6.0234 2.1484-11.848 6.0547-16.43s9.3203-7.6211 15.266-8.5742c5.9453-0.95312 12.035 0.24609 17.18 3.3789 31.707 18.43 55.707 47.672 67.598 82.363 11.891 34.691 10.875 72.508-2.8633 106.51-13.734 34.004-39.27 61.918-71.922 78.617l0.26953 134.88v-0.003906c36.699-11.387 70.488-30.609 99.031-56.34s51.156-57.352 66.273-92.68zm-290.54 157.12c15.148 2.6562 30.5 3.9961 45.879 4.0039 14.938 0.003906 29.852-1.2617 44.574-3.7812l-0.29297-148.89v-0.14844c0-4.7109 1.3242-9.3281 3.8203-13.328 2.4961-3.9961 6.0625-7.2148 10.297-9.2852 20.418-9.6367 37.711-24.828 49.895-43.836 12.188-19.008 18.773-41.062 19.008-63.641-0.25-35.695-16.668-69.355-44.645-91.527l0.16016 78.648v0.18359h-0.003906c0.003906 4.4219-1.168 8.7617-3.3867 12.586-2.2188 3.8242-5.4102 6.9922-9.25 9.1836l-58.605 33.992h0.003906c-3.8398 2.2578-8.2148 3.4453-12.668 3.4453-4.4531 0-8.8281-1.1875-12.668-3.4453l-58.777-33.77h0.003906c-3.8594-2.1953-7.0625-5.3711-9.293-9.207-2.2305-3.832-3.4062-8.1914-3.4062-12.625v-0.074218l-0.16016-78.734c-27.891 22.281-44.18 56.004-44.301 91.699 0.30078 22.59 6.9648 44.637 19.223 63.613 12.258 18.977 29.617 34.113 50.082 43.68 4.2539 2.0625 7.8398 5.2812 10.348 9.2891 2.5078 4.0039 3.8438 8.6367 3.8438 13.363v0.074219l0.28125 148.53z" fill="#225936" fill-rule="evenodd"/>
</svg>
