<?xml version="1.0" encoding="UTF-8"?>
<svg width="1200pt" height="1200pt" version="1.1" viewBox="0 0 1200 1200" xmlns="http://www.w3.org/2000/svg">
 <g fill="#225936">
  <path d="m228.89 298.32h108.63c9.4688 0 17.145-7.668 17.145-17.145 0-9.4766-7.6758-17.145-17.145-17.145h-108.63c-9.4688 0-17.145 7.668-17.145 17.145 0.003906 9.4805 7.6797 17.145 17.145 17.145z"/>
  <path d="m228.89 458.22h108.63c9.4688 0 17.145-7.668 17.145-17.145 0-9.4766-7.6758-17.145-17.145-17.145h-108.63c-9.4688 0-17.145 7.668-17.145 17.145 0.003906 9.4766 7.6797 17.145 17.145 17.145z"/>
  <path d="m228.89 618.1h108.63c9.4688 0 17.145-7.668 17.145-17.145s-7.6758-17.145-17.145-17.145h-108.63c-9.4688 0-17.145 7.668-17.145 17.145 0.003906 9.4766 7.6797 17.145 17.145 17.145z"/>
  <path d="m228.89 777.97h108.63c9.4688 0 17.145-7.668 17.145-17.145s-7.6758-17.145-17.145-17.145h-108.63c-9.4688 0-17.145 7.668-17.145 17.145 0.003906 9.4805 7.6797 17.145 17.145 17.145z"/>
  <path d="m354.67 920.73c0-9.4766-7.6758-17.145-17.145-17.145h-108.63c-9.4688 0-17.145 7.668-17.145 17.145 0 9.4766 7.6758 17.145 17.145 17.145h108.63c9.4688-0.003906 17.145-7.6719 17.145-17.145z"/>
  <path d="m428.02 1011.4v-840h-85.715c-33.43 0-60.684 25.887-63.941 58.285h59.145c28.457 0 51.43 23.145 51.43 51.43 0 28.457-22.973 51.43-51.43 51.43l-59.832-0.003907v57.086h59.828c28.457 0 51.43 23.141 51.43 51.43 0 28.285-22.973 51.43-51.43 51.43h-59.828v57.086h59.828c28.457 0 51.43 22.973 51.43 51.43 0 28.285-22.973 51.43-51.43 51.43l-59.828-0.003907v56.914h59.828c28.457 0 51.43 23.141 51.43 51.43 0 28.457-22.973 51.43-51.43 51.43h-59.828v57.086h59.828c28.457 0 51.43 22.973 51.43 51.43 0 28.285-22.973 51.43-51.43 51.43h-58.973c4.1172 31.711 30.859 56.395 63.773 56.395h102.86c-9.4297 0-17.145-7.7148-17.145-17.141z"/>
  <path d="m988.25 188.57v822.86c0 9.4297-7.7148 17.145-17.145 17.145h-508.8v-857.14h160.29c-1.8867 5.3125-3.0859 11.141-3.0859 17.145v248.57c0 20.227 11.828 38.57 30 46.629 6.8555 3.082 14.23 4.7969 21.43 4.7969 12 0 23.828-4.457 33.43-12.516l57.43-49.199 57.258 49.031c9.4258 8.2266 21.254 12.684 33.598 12.684 7.7148 0 15.258-1.8867 21.086-4.6289 18.512-8.2266 30.512-26.57 30.512-46.797v-248.57c0-6-1.1992-11.828-3.0859-17.145h69.941c9.4297 0.003907 17.145 7.7188 17.145 17.145z"/>
  <path d="m663.74 452.57c2.2266 1.0273 4.7969 1.7148 7.1992 1.7148 3.9414 0 7.8867-1.543 11.141-4.2852l79.715-68.398 79.715 68.398c5.1445 4.457 12.344 5.4844 18.344 2.5703 6.1719-2.7422 10.113-8.7422 10.113-15.43v-248.57c0-9.4297-7.7148-17.145-17.145-17.145l-181.88 0.003907c-9.6016 0-17.145 7.7148-17.145 17.145v248.57c0 6.6836 3.7734 12.684 9.9453 15.426z"/>
 </g>
</svg>
