<?xml version="1.0" encoding="UTF-8"?>
<svg width="512pt" height="512pt" version="1.1" viewBox="0 0 512 512" xmlns="http://www.w3.org/2000/svg">
 <g fill="#fff">
  <path d="m264.7 365.57-30.719-13.824c-13.312 11.266-30.207 17.922-48.129 17.922s-34.305-6.6562-48.129-17.922l-30.719 13.824c-27.137 12.289-44.543 39.426-44.543 69.121v36.352c0 15.359 12.289 27.648 27.648 27.648h191.49c15.359 0 27.648-12.289 27.648-27.648v-36.352c-0.003906-29.695-17.41-56.832-44.547-69.121z"/>
  <path d="m248.32 279.04c0 39.871-27.738 72.191-61.953 72.191-34.215 0-61.953-32.32-61.953-72.191 0-39.871 27.738-72.191 61.953-72.191 34.215 0 61.953 32.32 61.953 72.191"/>
  <path d="m449.02 98.816c0-24.574-17.406-45.055-40.449-49.664-2.5586-20.48-19.969-36.863-41.473-36.863-13.824 0-25.602 6.6562-33.281 16.895-7.6797-10.238-19.969-16.895-33.281-16.895-21.504 0-38.91 15.871-41.473 36.863-23.039 4.6094-40.449 25.09-40.449 49.664 0 24.574 17.406 45.055 40.449 49.664 2.5586 20.48 19.969 36.863 41.473 36.863 13.824 0 25.602-6.6562 33.281-16.895 7.6797 10.238 19.969 16.895 33.281 16.895 21.504 0 38.91-15.871 41.473-36.863 23.043-4.6094 40.449-25.09 40.449-49.664z"/>
  <path d="m357.89 222.72c0 14.988-12.148 27.137-27.133 27.137-14.988 0-27.137-12.148-27.137-27.137 0-14.984 12.148-27.133 27.137-27.133 14.984 0 27.133 12.148 27.133 27.133"/>
  <path d="m314.37 271.87c0 12.16-9.8555 22.016-22.016 22.016-12.16 0-22.016-9.8555-22.016-22.016 0-12.156 9.8555-22.016 22.016-22.016 12.16 0 22.016 9.8594 22.016 22.016"/>
 </g>
</svg>
